<?xml version="1.0" encoding="utf-8"?>
<!-- Generator: Adobe Illustrator 22.0.1, SVG Export Plug-In . SVG Version: 6.00 Build 0)  -->
<svg version="1.1" id="Calque_1" xmlns="http://www.w3.org/2000/svg" xmlns:xlink="http://www.w3.org/1999/xlink" x="0px" y="0px"
	 viewBox="0 0 300 300" style="enable-background:new 0 0 300 300;" xml:space="preserve">
<style type="text/css">
	.st0{fill:none;stroke:#434343;stroke-width:4;stroke-miterlimit:10;}
	.st1{fill:none;stroke:#434343;stroke-width:8;stroke-miterlimit:10;}
	.st2{fill:none;}
	.st3{fill:#434343;}
	.st4{font-family:'ArialRoundedMTBold';}
	.st5{font-size:50px;}
	.st6{letter-spacing:10;}
	.st7{fill:#E4E4E4;}
</style>
<path class="st0" d="M295.9,154.8c0,0-30.8,72-136.7,61c-106-11-132.3,12.8-132.3,12.8s38.7,73.3,143.5,67.3
	C275.3,289.8,303.7,142.3,295.9,154.8z"/>
<path class="st0" d="M49.9,256.4c0,0,63.8-82.7,128.5-44.6s108.6-11.6,108.6-11.6S212.8,372.8,49.9,256.4z"/>
<path class="st0" d="M70,272.2c0,0,41.3-110.8,163.2-2.2C233.2,270,161.5,328.1,70,272.2z"/>
<path class="st0" d="M85.9,281.2c0,0,37.8-98.2,124.5,1.7C210.4,282.9,145.5,312.9,85.9,281.2z"/>
<path class="st0" d="M107.6,289.7c0,0,32.8-67.4,66.6,4.3C174.2,294,128.5,300.7,107.6,289.7z"/>
<circle class="st1" cx="150" cy="150" r="146"/>
<rect x="40.8" y="101.3" class="st2" width="218.3" height="64"/>
<text transform="matrix(1 0 0 1 40.9258 137.7148)" class="st3 st4 st5 st6">VOLNA</text>
<g>
	<path class="st3" d="M228.2,12.3c0.3,0.1,0.8,0.3,1.2,0.6c0.6,0.4,1,0.7,1.1,1.2c0.1,0.3,0.1,0.7-0.1,1.1c-0.4,0.6-1,0.8-1.6,0.7
		l0,0c0.3,0.3,0.3,0.8,0.1,1.3c-0.2,0.7-0.4,1.3-0.4,1.5l-0.6-0.4c0-0.2,0.1-0.6,0.3-1.3c0.2-0.7,0.1-1.1-0.4-1.5l-0.6-0.3l-1.2,2
		l-0.6-0.3L228.2,12.3z M227.6,14.8l0.6,0.4c0.6,0.4,1.3,0.3,1.6-0.3c0.4-0.6,0.1-1.1-0.6-1.5c-0.3-0.2-0.5-0.3-0.6-0.3L227.6,14.8z
		"/>
	<path class="st3" d="M230.6,17.8c-0.5,0.8-0.2,1.5,0.4,1.8c0.4,0.3,0.7,0.3,1,0.4l-0.2,0.5c-0.3,0-0.7-0.1-1.2-0.5
		c-1-0.6-1.2-1.7-0.6-2.7c0.6-1,1.7-1.4,2.6-0.8c1.1,0.7,0.8,1.8,0.4,2.4c-0.1,0.1-0.1,0.2-0.2,0.3L230.6,17.8z M232.6,18.5
		c0.2-0.4,0.4-1.1-0.2-1.5c-0.6-0.4-1.2,0-1.5,0.4L232.6,18.5z"/>
	<path class="st3" d="M234.5,22.5l0.2-0.4l0,0c-0.3,0.1-0.8,0.1-1.3-0.2c-0.7-0.4-0.7-1.1-0.4-1.6c0.5-0.8,1.5-0.8,2.7,0.1l0-0.1
		c0.2-0.3,0.4-0.8-0.2-1.2c-0.3-0.2-0.7-0.3-1-0.3l0.1-0.5c0.4,0,0.8,0.1,1.3,0.4c1,0.6,0.8,1.5,0.4,2.1l-0.8,1.2
		c-0.2,0.3-0.4,0.6-0.5,0.8L234.5,22.5z M235.5,20.7c-0.6-0.4-1.4-0.8-1.8-0.2c-0.3,0.4-0.1,0.7,0.2,0.9c0.4,0.3,0.9,0.2,1.1,0
		c0.1,0,0.1-0.1,0.2-0.2L235.5,20.7z"/>
	<path class="st3" d="M239.2,18.7l0.6,0.4l-3.2,4.7l-0.6-0.4L239.2,18.7z"/>
	<path class="st3" d="M242.3,22l-1.3-1l0.3-0.5l3.2,2.3l-0.3,0.5l-1.3-1l-2.8,3.9l-0.6-0.4L242.3,22z"/>
	<path class="st3" d="M241.8,27.6l2.3-3.1l0.6,0.4l-2.3,3.1L241.8,27.6z M245.4,24.1c-0.1,0.2-0.4,0.2-0.6,0.1
		c-0.2-0.1-0.2-0.4-0.1-0.6c0.1-0.2,0.4-0.2,0.6-0.1C245.6,23.7,245.6,23.9,245.4,24.1z"/>
	<path class="st3" d="M245.1,26.6c0.3-0.3,0.4-0.6,0.6-0.8l0.5,0.4l-0.4,0.5l0,0c0.4-0.2,0.9-0.2,1.4,0.2c0.4,0.3,0.5,0.8,0.4,1.3
		l0,0c0.2-0.1,0.5-0.1,0.7-0.1c0.3,0,0.6,0.1,0.8,0.3c0.4,0.3,0.8,1.1-0.1,2.1l-1.4,1.8l-0.5-0.4l1.4-1.7c0.5-0.6,0.5-1.1,0.1-1.5
		c-0.3-0.2-0.7-0.2-1,0c-0.1,0.1-0.2,0.1-0.3,0.2l-1.5,1.9l-0.5-0.4l1.4-1.8c0.4-0.5,0.5-1,0-1.3c-0.3-0.3-0.8-0.2-1.1,0
		c-0.1,0.1-0.2,0.1-0.3,0.2l-1.5,1.8l-0.5-0.4L245.1,26.6z"/>
	<path class="st3" d="M250.1,31.9c-0.6,0.7-0.4,1.4,0.1,1.9c0.4,0.3,0.7,0.5,0.9,0.5l-0.2,0.5c-0.3-0.1-0.7-0.3-1.1-0.7
		c-0.9-0.8-0.9-1.8-0.2-2.7s1.9-1.1,2.7-0.4c1,0.8,0.5,1.9,0,2.4c-0.1,0.1-0.2,0.2-0.2,0.2L250.1,31.9z M252,32.8
		c0.3-0.3,0.6-1,0-1.5c-0.5-0.5-1.2-0.2-1.6,0.2L252,32.8z"/>
	<path class="st3" d="M254.7,36.1l-1.6,0.9l-0.5-0.5l5-2.7l0.6,0.6l-2.3,5.2l-0.5-0.5l0.7-1.6L254.7,36.1z M256.4,36.9l0.7-1.5
		c0.2-0.3,0.3-0.6,0.5-0.9l0,0c-0.3,0.2-0.6,0.4-0.9,0.5l-1.4,0.8L256.4,36.9z"/>
	<path class="st3" d="M256.5,40.1l2.7-2.8l0.5,0.5l-2.7,2.8L256.5,40.1z M260.5,37.1c-0.2,0.2-0.4,0.2-0.6,0c-0.2-0.2-0.2-0.4,0-0.6
		c0.2-0.2,0.4-0.2,0.6,0C260.7,36.7,260.7,36.9,260.5,37.1z"/>
	<path class="st3" d="M259.8,39.6c0.3-0.3,0.6-0.6,0.8-0.9l0.4,0.4l-0.5,0.6l0,0c0.5-0.2,1-0.2,1.4,0.2c0.1,0.1,0.1,0.1,0.1,0.2
		l-0.5,0.5c0-0.1-0.1-0.1-0.2-0.2c-0.3-0.4-0.9-0.3-1.3,0c-0.1,0.1-0.2,0.1-0.3,0.2l-1.5,1.5l-0.5-0.5L259.8,39.6z"/>
	<path class="st3" d="M261.7,45.2c-0.2-0.1-0.6-0.3-0.9-0.6c-0.8-0.8-0.8-1.9,0.1-2.8c0.9-0.8,2-0.8,2.9,0.1
		c0.3,0.3,0.5,0.6,0.5,0.8l-0.5,0.3c0-0.2-0.2-0.4-0.4-0.7c-0.6-0.6-1.4-0.5-2,0c-0.6,0.6-0.6,1.4-0.1,2c0.3,0.3,0.5,0.4,0.7,0.5
		L261.7,45.2z"/>
	<path class="st3" d="M264.1,44.1c0.3-0.3,0.6-0.6,0.9-0.8l0.4,0.5l-0.5,0.5l0,0c0.5-0.2,1-0.1,1.4,0.2c0.1,0.1,0.1,0.1,0.1,0.2
		l-0.5,0.5c0-0.1-0.1-0.1-0.1-0.2c-0.3-0.4-0.9-0.4-1.3-0.1c-0.1,0.1-0.2,0.1-0.3,0.2l-1.5,1.4l-0.5-0.5L264.1,44.1z"/>
	<path class="st3" d="M265.4,49.4l0.3-0.4l0,0c-0.4,0-0.8-0.1-1.2-0.5c-0.5-0.6-0.4-1.3,0-1.6c0.7-0.6,1.6-0.3,2.6,0.8l0.1-0.1
		c0.2-0.2,0.6-0.7,0.1-1.3c-0.2-0.3-0.6-0.5-0.9-0.6l0.2-0.4c0.4,0.1,0.8,0.4,1.1,0.7c0.8,0.9,0.4,1.6-0.2,2.2l-1.1,1
		c-0.3,0.2-0.5,0.5-0.7,0.7L265.4,49.4z M266.8,48.1c-0.5-0.6-1.2-1.2-1.7-0.7c-0.3,0.3-0.3,0.7-0.1,0.9c0.3,0.4,0.8,0.4,1.1,0.3
		c0.1,0,0.1-0.1,0.2-0.1L266.8,48.1z"/>
	<path class="st3" d="M266.5,50.8l2.5-2.2l-0.4-0.4l0.4-0.3l0.4,0.4l0.1-0.1c0.4-0.4,0.9-0.6,1.3-0.5c0.4,0,0.7,0.2,0.9,0.5
		c0.2,0.2,0.3,0.4,0.3,0.5l-0.5,0.3c0-0.1-0.1-0.2-0.2-0.4c-0.4-0.5-0.9-0.2-1.3,0.2l-0.2,0.1l0.6,0.7l-0.4,0.3l-0.6-0.7l-2.5,2.2
		L266.5,50.8z"/>
	<path class="st3" d="M272.5,50.1l-0.9,0.7l0.6,0.8l-0.4,0.3l-0.6-0.8l-1.6,1.3c-0.4,0.3-0.5,0.6-0.2,0.9c0.1,0.1,0.2,0.2,0.3,0.3
		l-0.4,0.4c-0.1-0.1-0.3-0.2-0.5-0.4c-0.2-0.3-0.3-0.5-0.3-0.8c0-0.3,0.3-0.6,0.6-0.8l1.6-1.3l-0.4-0.5l0.4-0.3l0.4,0.5l0.7-0.6
		L272.5,50.1z"/>
	<path class="st3" d="M275.1,53.7l-1-1.3l0.5-0.4l2.4,3.2l-0.5,0.4l-1-1.3l-3.8,2.9l-0.4-0.6L275.1,53.7z"/>
	<path class="st3" d="M275,57.1c0.4-0.3,0.7-0.5,1-0.7l0.4,0.5l-0.6,0.5l0,0c0.5-0.2,1,0,1.3,0.4c0,0.1,0.1,0.1,0.1,0.2l-0.5,0.4
		c0-0.1-0.1-0.1-0.1-0.2c-0.3-0.4-0.8-0.5-1.3-0.2c-0.1,0-0.2,0.1-0.3,0.2l-1.7,1.2l-0.4-0.6L275,57.1z"/>
	<path class="st3" d="M275.6,62.6l0.4-0.3l0,0c-0.4,0-0.8-0.2-1.2-0.6c-0.5-0.6-0.2-1.3,0.2-1.6c0.8-0.5,1.7-0.2,2.5,1.1l0.1,0
		c0.3-0.2,0.7-0.6,0.2-1.2c-0.2-0.3-0.5-0.5-0.8-0.7l0.3-0.4c0.4,0.1,0.7,0.4,1,0.8c0.7,1,0.2,1.7-0.4,2.1l-1.2,0.8
		c-0.3,0.2-0.5,0.4-0.7,0.6L275.6,62.6z M277.2,61.3c-0.4-0.6-1-1.3-1.7-0.8c-0.4,0.3-0.4,0.6-0.2,0.9c0.3,0.4,0.7,0.5,1.1,0.4
		c0.1,0,0.1-0.1,0.2-0.1L277.2,61.3z"/>
	<path class="st3" d="M278.3,66.2c-0.2-0.1-0.5-0.4-0.8-0.8c-0.6-1-0.4-2,0.6-2.7c1-0.7,2.2-0.5,2.9,0.6c0.2,0.3,0.3,0.7,0.4,0.9
		l-0.5,0.2c0-0.2-0.1-0.5-0.3-0.8c-0.5-0.7-1.3-0.8-2-0.3c-0.7,0.5-0.9,1.3-0.5,1.9c0.2,0.3,0.5,0.5,0.6,0.6L278.3,66.2z"/>
	<path class="st3" d="M280.7,66.5L280.7,66.5c0.2,0,0.4,0,0.6,0.1l1.7,0.2l0.5,0.7l-2.1-0.4l-1,2.7l-0.5-0.7l0.9-2.1l-0.5-0.1
		l-1.2,0.8l-0.4-0.6l4.8-3l0.4,0.6L280.7,66.5z"/>
	<path class="st3" d="M280.7,70.4l3.3-2l0.4,0.6l-3.3,2L280.7,70.4z M285.3,68.5c-0.2,0.1-0.5,0.1-0.6-0.2c-0.1-0.2-0.1-0.5,0.1-0.6
		c0.2-0.1,0.5-0.1,0.6,0.1C285.6,68.1,285.5,68.3,285.3,68.5z"/>
	<path class="st3" d="M284.1,70.6c0.3-0.2,0.6-0.4,0.9-0.6l0.3,0.5l-0.5,0.4l0,0c0.4,0,0.9,0.2,1.3,0.7c0.3,0.5,0.4,1.3-0.7,2
		l-2,1.2l-0.4-0.6l1.9-1.1c0.5-0.3,0.9-0.8,0.5-1.3c-0.2-0.4-0.7-0.5-1.1-0.5c-0.1,0-0.2,0.1-0.3,0.1l-2,1.2l-0.4-0.6L284.1,70.6z"
		/>
	<path class="st3" d="M288.9,77c-0.3,0.1-0.5,0.3-1,0.5l-2,1.1c-0.8,0.4-1.3,0.5-1.8,0.4c-0.5-0.2-0.8-0.6-1.1-1
		c-0.2-0.4-0.4-0.9-0.3-1.3l0.6-0.1c0,0.3,0,0.7,0.3,1.1c0.3,0.6,0.9,0.9,1.8,0.5l0.4-0.2l0,0c-0.4,0-0.9-0.2-1.2-0.8
		c-0.5-0.8-0.1-1.8,0.9-2.3c1.2-0.6,2.2-0.2,2.6,0.6c0.3,0.6,0.2,1.1,0,1.4l0,0l0.5-0.2L288.9,77z M287.2,77.1
		c0.1-0.1,0.2-0.1,0.3-0.2c0.3-0.3,0.4-0.8,0.2-1.2c-0.3-0.6-1-0.7-1.8-0.3c-0.7,0.4-1,1-0.7,1.7c0.2,0.4,0.6,0.6,1.1,0.5
		c0.1,0,0.3-0.1,0.4-0.1L287.2,77.1z"/>
</g>
<g>
	<rect x="272.5" y="-32" class="st7" width="26.5" height="26.5"/>
</g>
<rect x="246" y="-32" class="st3" width="26.5" height="26.5"/>
</svg>
